<svg width="201" height="92" viewBox="0 0 201 92" fill="none" xmlns="http://www.w3.org/2000/svg">
<path d="M115.096 9.37826C115.096 9.37826 141.719 34.1274 142.846 35.1737C144.523 35.4975 181.121 42.5667 186.839 43.7439L187.027 43.7828L194.469 53.7091L189.395 64.2919C189.395 64.2919 168.54 70.6056 168.223 70.7015C168.279 71.2821 168.376 72.2924 168.376 72.2924C168.376 78.6181 163.196 83.7646 156.828 83.7646C150.473 83.7646 145.303 78.6341 145.284 72.3234C144.251 72.3234 55.8765 72.3234 55.6099 72.3234C55.806 73.1678 55.9811 74.0182 55.9811 74.8807C55.9811 81.2033 50.8018 86.3479 44.4344 86.3479C38.0669 86.3479 32.8856 81.2043 32.8856 74.8807C32.8856 73.6735 33.121 72.4913 33.5013 71.3411C33.3665 71.3351 33.1955 71.3281 33.1955 71.3281L15.1837 67.6246L6.10284 55.1331L9.45408 42.2928C9.45408 42.2928 37.4331 35.3376 37.7047 35.2696C37.9019 35.0698 62.1524 10.4875 62.1524 10.4875L62.4864 10.1697C64.6414 8.12511 64.7531 8.11712 70.6346 7.67242C70.9867 7.65143 105.825 5.65679 105.877 5.65679C110.513 5.37399 110.966 5.44594 115.096 9.37826ZM145.922 30.0732L145.78 30.0462L145.675 29.9483C145.412 29.7054 119.377 5.69377 118.999 5.36099C113.883 0.48931 111.868 -0.298154 105.51 0.0835865L70.2583 2.09822C62.2077 2.7068 61.5859 3.2984 58.5999 6.14046L58.285 6.44026C58.0084 6.70208 48.4385 16.4005 39.6645 25.3004L34.271 30.247C34.271 30.247 5.4177 37.5341 4.85329 37.677C4.70942 38.2256 0.113677 55.8326 -9.93416e-06 56.2703C0.268613 56.6391 11.6624 72.3084 11.8797 72.6082C12.2439 72.6882 27.2466 76.0069 27.2466 76.0069L27.2777 76.3716C28.0403 85.1357 35.5769 92 44.4364 92C52.5997 92 59.7026 86.2409 61.3234 78.3063L61.4049 77.9066H140.56L140.682 78.2324C143.178 84.9188 149.667 89.4118 156.829 89.4118C165.201 89.4118 172.332 83.4688 173.785 75.2794L173.838 74.9796C173.838 74.9796 193.007 69.0157 193.417 68.8877C193.598 68.51 200.75 53.5862 201 53.0665C200.653 52.6038 190.48 39.0421 190.287 38.7852C188.48 38.2806 157.774 32.3496 145.922 30.0732ZM105.915 12.8689L66.4403 15.1403L61.2529 33.9245H127.424L105.915 12.8689ZM103.846 18.3262L114.334 28.5962H68.2894L70.5964 20.2409L103.846 18.3262Z" fill="black"/>
</svg>
